<svg width="180" height="40" viewBox="0 0 180 40" fill="none" xmlns="http://www.w3.org/2000/svg">
  <path d="M10 8H20V12H10V8Z" fill="#5D3FD3"/>
  <path d="M10 16H30V20H10V16Z" fill="#5D3FD3"/>
  <path d="M10 24H20V28H10V24Z" fill="#5D3FD3"/>
  <path d="M45 8H40V28H45V8Z" fill="#5D3FD3"/>
  <path d="M55 8C51.134 8 48 11.134 48 15V21C48 24.866 51.134 28 55 28C58.866 28 62 24.866 62 21V15C62 11.134 58.866 8 55 8ZM57 21C57 22.105 56.105 23 55 23C53.895 23 53 22.105 53 21V15C53 13.895 53.895 13 55 13C56.105 13 57 13.895 57 15V21Z" fill="#5D3FD3"/>
  <path d="M73 8C69.134 8 66 11.134 66 15V21C66 24.866 69.134 28 73 28C76.866 28 80 24.866 80 21V15C80 11.134 76.866 8 73 8ZM75 21C75 22.105 74.105 23 73 23C71.895 23 71 22.105 71 21V15C71 13.895 71.895 13 73 13C74.105 13 75 13.895 75 15V21Z" fill="#5D3FD3"/>
  <path d="M90 8C86.134 8 83 11.134 83 15V28H88V21H92V28H97V15C97 11.134 93.866 8 90 8ZM92 16H88V15C88 13.895 88.895 13 90 13C91.105 13 92 13.895 92 15V16Z" fill="#5D3FD3"/>
  <path d="M105 8C101.134 8 98 11.134 98 15V21C98 24.866 101.134 28 105 28C108.866 28 112 24.866 112 21V18H107V21C107 22.105 106.105 23 105 23C103.895 23 103 22.105 103 21V15C103 13.895 103.895 13 105 13C106.105 13 107 13.895 107 15V16H112V15C112 11.134 108.866 8 105 8Z" fill="#5D3FD3"/>
  <path d="M120 8C116.134 8 113 11.134 113 15V21C113 24.866 116.134 28 120 28C123.866 28 127 24.866 127 21V15C127 11.134 123.866 8 120 8ZM122 21C122 22.105 121.105 23 120 23C118.895 23 118 22.105 118 21V15C118 13.895 118.895 13 120 13C121.105 13 122 13.895 122 15V21Z" fill="#5D3FD3"/>
  <path d="M135 8H130V28H145V23H135V8Z" fill="#5D3FD3"/>
  <path d="M155 13H160V28H165V13H170V8H155V13Z" fill="#5D3FD3"/>
  <path d="M180 8H175V28H180V8Z" fill="#5D3FD3"/>
  <path d="M25 8H30V28H25V8Z" fill="#DAA520"/>
</svg>