<svg xmlns="http://www.w3.org/2000/svg" width="24" height="24" viewBox="0 0 24 24" fill="none">
  <rect width="24" height="24" rx="4" fill="#1769FF"/>
  <path d="M7.8 10.2c.6 0 1.1.1 1.6.2.5.1.9.3 1.2.5.3.2.6.5.8.9.2.4.3.9.3 1.4 0 .6-.1 1.1-.4 1.6-.3.4-.7.8-1.3 1 .8.2 1.3.6 1.7 1.1.4.5.6 1.2.6 2 0 .6-.1 1.2-.4 1.6-.2.5-.6.8-1 .9-.4.3-.9.5-1.5.6-.6.1-1.2.2-1.8.2H2v-9.8h5.8zm-.4 5c.5 0 .9-.1 1.2-.3.3-.2.5-.6.5-1.1 0-.3-.1-.5-.2-.7-.1-.2-.2-.3-.4-.4-.2-.1-.4-.2-.6-.2-.2 0-.5-.1-.8-.1H4.6v2.8h2.8zm.2 5.4c.3 0 .5 0 .8-.1.2 0 .5-.1.6-.2.2-.1.3-.3.4-.5.1-.2.2-.5.2-.8 0-.7-.2-1.1-.6-1.4-.4-.3-.9-.4-1.6-.4H4.6v3.4h3zm11.9 1.6c.4 0 .8 0 1.1-.1.3-.1.6-.2.8-.4.2-.2.4-.4.4-.6.1-.3.1-.6.1-.9 0-.4-.1-.7-.2-1-.1-.3-.3-.5-.5-.6-.2-.2-.5-.3-.8-.4-.3-.1-.7-.1-1-.1-.4 0-.7 0-1.1.1-.3.1-.6.2-.8.4-.2.2-.4.4-.5.6-.1.3-.2.6-.2.9 0 .4.1.7.1.9.1.3.2.5.4.6.2.2.5.3.8.4.3.1.7.1 1.1.1zm-1.1-6.2c.3 0 .6 0 .9-.1.3-.1.5-.2.7-.4.2-.2.3-.4.4-.6.1-.2.2-.5.2-.9 0-.3-.1-.6-.2-.9-.1-.2-.3-.4-.4-.6-.2-.1-.4-.2-.7-.3-.3-.1-.5-.1-.9-.1-.3 0-.6 0-.9.1-.3.1-.5.2-.7.3-.2.1-.3.3-.4.6-.1.2-.2.5-.2.9 0 .3.1.6.2.9.1.2.2.4.4.6.2.2.4.3.7.4.3.1.6.1.9.1zM16 5.5h7.1v1.7H16v-1.7z" fill="#fff"/>
</svg> 