<svg xmlns="http://www.w3.org/2000/svg" width="24" height="24" viewBox="0 0 24 24" fill="none">
  <circle cx="12" cy="12" r="10" fill="#EA4C89"/>
  <path d="M12 2C6.477 2 2 6.477 2 12c0 5.523 4.477 10 10 10s10-4.477 10-10c0-5.523-4.477-10-10-10zm6.93 7.5c-1.06-.17-2.13-.26-3.19-.27-.14-.32-.28-.63-.44-.94C16.5 7.5 17.8 8.4 18.93 9.5zM12 4c1.7 0 3.29.56 4.56 1.5-1.13.97-2.47 1.7-3.97 2.13C11.7 6.3 11.1 5.1 10.5 4.13 11 4.05 11.5 4 12 4zm-2.07.36c.6.97 1.18 2.13 1.67 3.41-2.1.5-4.1.6-5.97.36C6.3 6.1 8.04 4.8 9.93 4.36zM4 12c0-.13 0-.26.01-.39 2.13.23 4.47.13 6.97-.33.2.47.39.95.56 1.44-2.7.8-5.1 2.3-6.97 4.36C4.21 15.1 4 13.58 4 12zm1.07 5.5c1.5-1.8 3.5-3.1 5.8-3.8.6 1.7 1.1 3.4 1.4 5.1-2.6-.3-4.8-1.6-7.2-3.3zm7.93 3.5c-.3-1.7-.8-3.4-1.4-5.1 2.2-.3 4.5-.2 6.8.2-1.2 2.1-3.2 3.6-5.4 4.9zm6.01-6.1c-2.3-.4-4.7-.5-7-.2-.2-.5-.4-1-.6-1.5 2.3-.5 4.5-1.5 6.3-3.1 1.1 1.4 1.7 3.1 1.3 4.8z" fill="#fff"/>
</svg> 